<?xml version="1.0" standalone="no"?>
<!DOCTYPE svg PUBLIC "-//W3C//DTD SVG 20010904//EN"
 "http://www.w3.org/TR/2001/REC-SVG-20010904/DTD/svg10.dtd">
<svg version="1.0" xmlns="http://www.w3.org/2000/svg"
 width="370.000000pt" height="370.000000pt" viewBox="0 0 370.000000 370.000000"
 preserveAspectRatio="xMidYMid meet">
<metadata>
Created by potrace 1.11, written by Peter Selinger 2001-2013
</metadata>
<g transform="translate(0.000000,370.000000) scale(0.100000,-0.100000)"
fill="#000000" stroke="none">
<path d="M1710 3690 c-734 -57 -1376 -557 -1608 -1255 -274 -821 58 -1720 799
-2166 419 -252 928 -328 1404 -208 653 165 1169 681 1334 1334 106 422 57 884
-134 1267 -100 200 -216 358 -376 513 -317 307 -707 480 -1154 515 -131 10
-127 10 -265 0z m-136 -670 c-62 -35 -144 -133 -144 -171 0 -15 6 -32 14 -38
25 -21 355 -111 406 -111 51 0 381 90 406 111 8 6 14 24 14 39 0 38 -81 134
-144 171 -42 24 -46 29 -21 23 85 -17 201 -58 290 -102 204 -100 371 -252 491
-447 l18 -30 -26 23 c-26 24 -158 82 -186 82 -8 0 -24 -7 -34 -17 -15 -14 -18
-32 -18 -127 1 -61 5 -154 9 -207 10 -114 22 -139 148 -324 85 -124 90 -130
123 -130 31 0 39 6 77 61 24 34 50 86 58 115 15 52 15 49 11 -121 -4 -194 -23
-293 -86 -443 -32 -78 -119 -230 -146 -257 -14 -13 -14 -12 -5 13 6 16 11 65
11 110 0 92 -15 127 -54 127 -41 0 -332 -146 -380 -191 -56 -51 -228 -321
-228 -357 0 -37 23 -49 123 -63 l89 -13 -68 -29 c-175 -75 -397 -109 -585 -89
-126 13 -259 46 -359 89 l-67 29 86 11 c93 13 133 32 133 64 0 24 -157 280
-209 341 -27 31 -71 58 -206 124 -94 46 -181 84 -193 84 -34 0 -50 -26 -58
-97 -5 -49 -3 -84 8 -128 l16 -60 -23 29 c-42 52 -113 180 -148 266 -67 164
-100 365 -87 540 5 70 6 73 13 35 10 -47 34 -95 77 -153 27 -37 35 -43 62 -40
28 3 42 18 121 133 125 184 138 210 148 324 4 53 8 146 9 207 0 99 -2 113 -21
130 -20 18 -22 18 -92 -6 -39 -14 -91 -40 -115 -58 l-44 -33 18 30 c147 249
433 462 727 540 97 26 100 26 41 -9z"/>
<path d="M1742 2203 c-278 -192 -332 -242 -332 -310 0 -38 128 -423 149 -447
37 -42 60 -46 291 -46 231 0 253 3 292 47 21 23 148 409 148 450 0 52 -32 90
-155 179 -283 206 -279 205 -393 127z"/>
</g>
</svg>
